<?xml version="1.0" standalone="no"?>
<!DOCTYPE svg PUBLIC "-//W3C//DTD SVG 20010904//EN"
 "http://www.w3.org/TR/2001/REC-SVG-20010904/DTD/svg10.dtd">
<svg version="1.0" xmlns="http://www.w3.org/2000/svg"
 width="3134.000000pt" height="3134.000000pt" viewBox="0 0 3134.000000 3134.000000"
 preserveAspectRatio="xMidYMid meet">
<metadata>
Created by potrace 1.11, written by Peter Selinger 2001-2013
</metadata>
<g transform="translate(0.000000,3134.000000) scale(0.100000,-0.100000)"
fill="#000000" stroke="none">
<path d="M15665 31326 c-6 -8 -2421 -1267 -5367 -2797 -2947 -1531 -5358
-2786 -5358 -2789 1 -7 4391 -2353 4404 -2353 6 0 1437 757 3180 1683 2884
1532 3171 1682 3195 1673 14 -6 1932 -1028 4261 -2271 l4235 -2260 2 -6444 3
-6443 -4252 -2385 c-2339 -1312 -4261 -2385 -4272 -2384 -18 0 -8497 4751
-8518 4772 -5 5 -7 1908 -6 4229 l3 4222 2070 -1067 2070 -1068 3 -3305 2
-3304 2166 -1125 c1191 -619 2172 -1126 2180 -1128 12 -3 14 26 14 170 2 532
48 6409 51 6412 2 1 456 -231 1008 -516 552 -285 1009 -518 1015 -518 16 1
4298 2205 4299 2213 3 11 -14912 7716 -14932 7714 -9 0 -964 517 -2122 1151
-1159 633 -2113 1154 -2123 1158 -15 6 -16 -633 -16 -8867 l0 -8874 55 -29
c57 -29 65 -40 41 -49 -27 -11 -98 -58 -93 -63 2 -3 31 11 63 31 33 19 63 35
67 35 20 0 12677 -6724 12677 -6735 0 -17 59 -15 62 2 2 11 7256 3868 12271
6525 438 232 396 218 485 163 23 -14 42 -22 42 -18 0 5 -25 24 -57 42 l-56 34
56 29 57 28 -2 8877 -3 8878 -6380 3362 c-3509 1849 -6391 3371 -6403 3383
-28 23 -63 26 -77 6z"/>
</g>
</svg>
